<?xml version="1.0" standalone="no"?>
<!DOCTYPE svg PUBLIC "-//W3C//DTD SVG 1.1//EN" "http://www.w3.org/Graphics/SVG/1.1/DTD/svg11.dtd" >
<svg xmlns="http://www.w3.org/2000/svg">
<metadata></metadata>
<defs>
<font id="LizardRegular" horiz-adv-x="1580" >
<font-face units-per-em="2048" ascent="1638" descent="-410" />
<missing-glyph horiz-adv-x="569" />
<glyph horiz-adv-x="0" />
<glyph horiz-adv-x="2048" />
<glyph unicode="&#xd;" horiz-adv-x="569" />
<glyph unicode=" "  horiz-adv-x="569" />
<glyph unicode="&#x09;" horiz-adv-x="569" />
<glyph unicode="&#xa0;" horiz-adv-x="569" />
<glyph unicode="!" horiz-adv-x="479" d="M67 -2v211h334v-211h-334zM67 353v1502h334v-1502h-334z" />
<glyph unicode="&#x22;" horiz-adv-x="905" d="M70 1443v397h347v-392l-97 -270h-76l33 265h-207zM470 1443v397h347v-392l-97 -270h-76l33 265h-207z" />
<glyph unicode="#" horiz-adv-x="1570" d="M59 1136v265l374 1l71 236h267l-69 -236h417l68 230h267l-67 -229h106v-265h-184l-123 -415h313v-265l-391 -1l-74 -247h-267l73 247h-418l-71 -241h-267l71 241h-90v265h168l123 414h-297zM500 722h418l123 415h-418z" />
<glyph unicode="$" horiz-adv-x="1289" d="M19 1199q10 -35 30 -84.5t66 -94.5q65 -66 266 -152q50 -24 82 -37t51 -21v-528q-175 9 -425 57l-2 -344l359 1q35 -3 68 -6v-214h81v209q74 -4 139 -1v-208h81v213q104 11 180 40q190 71 262 217q87 176 40 394h3q-9 33 -23 63q-27 69 -82.5 125.5t-260.5 143.5 q-48 23 -77 34.5t-42 17.5v532q180 -9 438 -57l2 365l-370 -1q-36 2 -70 3v141h-81v-140q-74 0 -139 -5v145h-81v-153q-345 -43 -452 -261q-88 -178 -40 -394h-3zM417 1456q27 47 97 72v-358q-2 0 -19.5 11t-26.5 18h-2q-142 100 -49 257zM595 280v494q64 -30 139 -68v-415 q-60 -11 -139 -11zM595 1127v421q60 10 139 10v-499q-64 30 -139 68zM815 313v350q9 -5 18 -11l18 -12h2q142 -101 49 -258q-26 -44 -87 -69z" />
<glyph unicode="%" horiz-adv-x="1373" d="M-15 1575.5q0 74.5 48 143t133 105t175.5 36.5t175.5 -36.5t133.5 -105t48.5 -143t-47 -142t-132 -105t-178 -37.5t-178 37.5t-132 105t-47 142zM142 -6l779 1862h251l-779 -1862h-251zM159 1575.5q0 -38.5 24 -73.5q50 -72 159 -72q47 0 91 19t68 53.5t24 73t-25 73.5 q-51 72 -158 72q-46 0 -90 -18.5t-68.5 -53.5t-24.5 -73.5zM621 266.5q0 74.5 48 143t133.5 105t175.5 36.5t175 -36.5t133.5 -105t48.5 -143t-47 -142t-132 -105t-178 -37.5t-178 37.5t-132 105t-47 142zM795 266.5q0 -38.5 24 -73t68 -53.5t91.5 -19t91 19t67.5 53.5 t24 73t-25 73.5q-51 72 -158 72q-46 0 -90 -18.5t-68.5 -53.5t-24.5 -73.5z" />
<glyph unicode="&#x26;" horiz-adv-x="1251" d="M-37 985q418 -195 247 -308t-190 -242t53 -240.5t262 -165.5t929 -26v263q-730 -104 -836 32.5t94.5 217.5t329.5 120t289 111q122 55 166 162q-26 115 -154 173q-160 72 -289 111.5t-329.5 120t-94.5 217.5t836 33v283q-739 8 -929 -46.5t-262 -165.5t-53 -240.5 t105.5 -196t411.5 -160.5q349 -54 348 -122t-934 69z" />
<glyph unicode="'" horiz-adv-x="437" d="M26 1438v397h347v-392l-97 -270h-76l33 265h-207z" />
<glyph unicode="(" horiz-adv-x="834" d="M10 927q0 248 104.5 476.5t288.5 349t375 124.5v-305q-93 -8 -187.5 -85.5t-150.5 -231t-56 -319.5t55 -317.5t149.5 -231t189.5 -87.5v-322q-196 3 -379 126.5t-286 349t-103 473.5z" />
<glyph unicode=")" horiz-adv-x="828" d="M80 -6v319q95 9 189.5 87.5t149.5 228.5t55 315t-56 317t-150.5 228.5t-187.5 85.5v302q191 -4 375 -123.5t288.5 -346t104.5 -472.5t-103 -469.5t-286 -346t-379 -125.5z" />
<glyph unicode="*" horiz-adv-x="743" d="M-2 1567l143 65l-47 85h88v102l112 -51l70 127l72 -129l108 49v-98h96l-47 -84l132 -60l-146 -66l58 -106h-93v-81l-98 45l-79 -142l-83 151l-102 -47v74h-90l54 99z" />
<glyph unicode="+" horiz-adv-x="1241" d="M32 498v261h458v452h314v-452h434v-261h-434v-508h-314v508h-458z" />
<glyph unicode="," horiz-adv-x="541" d="M66 -348l163 346h-130v296h334v-296l-234 -346h-133z" />
<glyph unicode="-" horiz-adv-x="986" d="M42 498v261h910v-261h-910z" />
<glyph unicode="." horiz-adv-x="528" d="M91 -2v296h334v-296h-334z" />
<glyph unicode="/" horiz-adv-x="760" d="M-49 -6l545 1862h347l-545 -1862h-347z" />
<glyph unicode="0" d="M10 927q0 248 104.5 476.5t291.5 351t384 122.5t383.5 -122.5t292 -351t105.5 -476.5t-103 -473.5t-289 -351t-388.5 -125.5t-388.5 125.5t-289 351t-103 473.5zM384 936q0 -166 55 -317.5t155 -235.5t208.5 -84t208 84t155 235.5t55.5 317.5t-56.5 319.5t-157 235.5 t-206 82t-205.5 -82t-156 -235.5t-56 -319.5z" />
<glyph unicode="1" horiz-adv-x="1134" d="M198 1333v232q377 43 383 286h332v-1855h-332v1338z" />
<glyph unicode="2" horiz-adv-x="1351" d="M36 -2h1191v329h-865q-1 159 145 233q173 111 373 198q47 20 97 45q201 92 256.5 151t82.5 133q13 32 23 69h-3q48 229 -40 420q-72 155 -262 221.5t-358 66.5l-571 -1v-387q570 146 785 -36q144 -177 2 -284h-2q-9 -7 -19.5 -14.5t-117.5 -68.5t-194 -97.5t-135 -61.5 q-205 -93 -270 -164q-46 -49 -66.5 -101.5t-29.5 -88.5h3q-8 -39 -13 -84l-12 -151v-327z" />
<glyph unicode="3" horiz-adv-x="1233" d="M29 0v284h676q173 9 171.5 239.5t-171.5 289.5h-676v289h666q173 58 171.5 284.5t-171.5 235.5h-666v232h910q262 -105 263 -408q3 -273 -236 -475q246 -119 250 -458q2 -398 -365 -513h-822z" />
<glyph unicode="4" horiz-adv-x="1397" d="M12 707l729 2v-715l336 1v715l249 -1v270l-250 2v883h-566zM493 970l243 647l4 -647h-247z" />
<glyph unicode="5" horiz-adv-x="1393" d="M32 -17l4 307l279 -4q302 -23 471.5 58.5t154.5 245.5q0 155 -165 258t-341 110t-399 -72v981h1191v-349h-865l-1 -243q323 23 625 -161t318 -524q-16 -299 -324 -468.5t-671 -139.5z" />
<glyph unicode="6" horiz-adv-x="1207" d="M1 623v434q-1 304 109 492t274.5 255.5t322 63.5t352.5 -70v-226q-209 67 -340.5 62.5t-214.5 -68t-113.5 -139.5t-35.5 -232q153 76 315 76h9q170 0 330 -83.5t249.5 -239t89.5 -324.5t-88 -322.5t-248 -239t-333 -85.5h-9q-173 0 -333 85.5t-248 239t-88 321.5z M338 597.5q0 -66.5 45 -144t124.5 -121t167 -43.5t167 43.5t125 121t45.5 164t-46 165.5t-126 121t-165.5 42t-165.5 -42q-109 -57 -154 -183v-12h-4q-13 -45 -13 -111.5z" />
<glyph unicode="7" horiz-adv-x="1352" d="M4 1571v286l1373 -2l-984 -1855h-382l833 1571h-840z" />
<glyph unicode="8" horiz-adv-x="1136" d="M25 492q4 306 208 426q-204 119 -208 425q-2 383 346 493q216 58 432 0q348 -110 346 -493q-4 -306 -209 -425q205 -120 209 -426q2 -383 -346 -493q-216 -57 -432 0q-348 110 -346 493zM346.5 502.5q-1.5 -221.5 162.5 -259.5h156q164 38 162.5 259.5t-162.5 277.5h-156 q-161 -56 -162.5 -277.5zM346.5 1332.5q1.5 -221.5 162.5 -277.5h156q161 56 162.5 277.5t-162.5 259.5h-156q-164 -38 -162.5 -259.5z" />
<glyph unicode="9" horiz-adv-x="1373" d="M0 1221.5q0 168.5 88 322t248 239t333 85.5h9q173 0 333 -85.5t248 -239t88 -321.5v-433q1 -304 -109 -492.5t-274.5 -255.5t-322 -63t-352.5 69v226q209 -67 340.5 -62.5t214.5 68.5t113.5 140t35.5 231q-153 -75 -315 -75h-9q-170 0 -329.5 83.5t-249.5 239t-90 324z M336 1227.5q0 -86.5 46 -165.5t126 -121t165.5 -42t165.5 42q111 58 154 184v11h4q14 45 14 111.5t-45.5 144t-125 121t-167 43.5t-167 -43.5t-125 -121t-45.5 -164z" />
<glyph unicode=":" horiz-adv-x="479" d="M67 -2v296h334v-296h-334zM67 902v307h334v-307h-334z" />
<glyph unicode=";" horiz-adv-x="541" d="M66 -348l163 346h-130v296h334v-296l-234 -346h-133zM99 912v307h334v-307h-334z" />
<glyph unicode="&#x3c;" horiz-adv-x="1111" d="M97 701v460l908 716v-455l-622 -491l622 -491v-455z" />
<glyph unicode="=" horiz-adv-x="1119" d="M22 298v261h1046v-261h-1046zM22 748v261h1046v-261h-1046z" />
<glyph unicode="&#x3e;" horiz-adv-x="1030" d="M79 -15v455l622 491l-622 491v455l908 -716v-460z" />
<glyph unicode="?" horiz-adv-x="1622" d="M196 1402q700 249 833 88q116 -140 -9 -261l-2 -1q-8 -8 -17 -16.5t-106 -81.5t-177.5 -120.5t-124.5 -78.5q-189 -117 -242 -194q-39 -52 -54 -125q-10 -32 -13 -66l3 1q-5 -101 11 -176l373 -1q-36 158 54 246h2q8 8 17.5 16.5t106 81.5t178 121.5t127.5 79.5 q185 116 240 192q37 51 49 103t17 88h-3q12 223 -101 383q-94 133 -293 174t-869 -109v-344zM303 -8h371v211h-371v-211z" />
<glyph unicode="@" horiz-adv-x="1412" d="M12 631q0 176 93.5 338.5t260.5 249.5t343 87t343 -87t261 -249.5t94 -338.5t-92 -336.5t-258 -249.5t-347 -89t-347.5 89t-258.5 249.5t-92 336.5zM188 635q0 -132 69.5 -253t194 -187.5t260.5 -66.5t243.5 57.5t168.5 132.5h-295v61q-71 -47 -166 -47q-80 0 -154 39.5 t-115 110.5t-41 149t42 149.5t115.5 110t153.5 38.5t168 -49v54h170v-481h200q35 88 35 201t-71 235t-196.5 187.5t-257.5 65.5t-257.5 -65.5t-196 -187.5t-70.5 -254zM509 627.5q0 -39.5 21 -75.5t58.5 -56.5t78 -20.5t78 20.5t58 56.5t20.5 75.5t-20.5 76.5t-58.5 56.5 t-78 19.5t-77.5 -19.5t-58.5 -56.5t-21 -76.5z" />
<glyph unicode="A" horiz-adv-x="1397" d="M12 2h392l158 757h449l190 -765l336 1l-461 1869h-566zM613 1020l168 597l169 -597h-337z" />
<glyph unicode="B" horiz-adv-x="1355" d="M5 0v1854h1022q262 -105 263 -408q0 -3 1 -7q0 -269 -237 -468q246 -119 250 -458q2 -398 -365 -513h-934zM327 1132h456q172 8 172 231q0 230 -172 239h-456v-470zM337 294h456q172 9 172 236q0 234 -172 243h-456v-479z" />
<glyph unicode="C" horiz-adv-x="1401" d="M10 911.5q0 394.5 209.5 673.5t512 279t512.5 -320q65 -88 117 -201h-388q-101 198 -241.5 198t-245.5 -181.5t-105 -436t105 -431.5t249.5 -177t247.5 187h393q-54 -156 -134 -262q-211 -280 -510.5 -280t-510.5 278.5t-211 673z" />
<glyph unicode="D" horiz-adv-x="1521" d="M0 2v1854h672q392 -22 586.5 -283.5t208.5 -630.5q-7 -301 -171.5 -584t-621.5 -360zM353 368h334q387 22 387 553v14v11q0 554 -387 561h-334v-1139z" />
<glyph unicode="E" horiz-adv-x="1275" d="M0 -1v1856h1001q242 -281 236 -281h-826v-434q73 0 300 120l-5 -120h295l247 -154l-247 -122h-295l17 -130q-239 130 -312 130v-575h826q6 0 11 1l-306 -291h-942z" />
<glyph unicode="F" horiz-adv-x="1141" d="M80 -28v1879h801l260 -278q-4 1 -9 1h-703v-458q137 25 289 122l-15 -130h251l210 -122l-210 -154h-251l5 -120q-144 89 -279 112v-558z" />
<glyph unicode="G" horiz-adv-x="1383" d="M0 919.5q0 394.5 209.5 673.5t512 279t512.5 -320q65 -88 117 -201h-388q-101 198 -241.5 198t-245.5 -181.5t-105 -436t105 -431.5t252 -177q252 0 262 488h2l2 37h-251l-210 154l210 122h251l-15 130q200 -128 374 -130v-276q-8 -401 -139 -630q-193 -250 -492.5 -250 t-510.5 278.5t-211 673z" />
<glyph unicode="H" horiz-adv-x="1375" d="M43 -6v1866h332v-767h608v767h332v-1866h-332v767h-608v-767h-332z" />
<glyph unicode="I" horiz-adv-x="449" d="M51 0v1855h332v-1855h-332z" />
<glyph unicode="J" horiz-adv-x="961" d="M91 -4v333q15 -2 23 -2q193 0 324 156.5t131 378.5v997h304v-985h-3v-4q0 -363 -216 -619.5t-520 -256.5q-22 0 -43 2z" />
<glyph unicode="K" horiz-adv-x="1422" d="M0 -6v1866h327v-767l756 767l419 4l-740 -746l839 -1129l-442 2l-629 933l-203 -176v-754h-327z" />
<glyph unicode="L" horiz-adv-x="1179" d="M43 -6v1866h332v-1531h778v-332z" />
<glyph unicode="M" horiz-adv-x="1604" d="M43 -6v1866h332l414 -887l444 887h332v-1866h-332v1167l-257 -543h-331l-270 533v-1157h-332z" />
<glyph unicode="N" horiz-adv-x="1585" d="M40 -6v1866h332l854 -1177v1177h341v-1862h-331l-864 1153v-1157h-332z" />
<glyph unicode="O" d="M10 927q0 248 104.5 476.5t291.5 351t384 122.5t383.5 -122.5t292 -351t105.5 -476.5t-103 -473.5t-289 -351t-388.5 -125.5t-388.5 125.5t-289 351t-103 473.5zM384 936q0 -166 55 -317.5t155 -235.5t208.5 -84t208 84t155 235.5t55.5 317.5t-56.5 319.5t-157 235.5 t-206 82t-205.5 -82t-156 -235.5t-56 -319.5z" />
<glyph unicode="P" horiz-adv-x="1324" d="M5 0v1854h1022q262 -105 263 -548q0 -7 1 -14q0 -311 -134 -414q-136 -105 -358 -105h-462v-773h-332zM327 1102h456q172 8 172 231q0 230 -172 239h-456v-470z" />
<glyph unicode="Q" horiz-adv-x="1593" d="M0 927q0 248 104.5 476.5t291.5 351t384 122.5t383.5 -122.5t292 -351t105.5 -476.5t-103 -473q-139 -305 -428 -427l276 -58v-273l-1057 224v273l42 -9q-115 110 -188 270q-103 225 -103 473zM374 936q0 -166 55 -317.5t155 -235.5t208.5 -84t208 84t155 235.5 t55.5 317.5t-56.5 319.5t-157 235.5t-206 82t-205.5 -82t-156 -235.5t-56 -319.5z" />
<glyph unicode="R" horiz-adv-x="1355" d="M5 0v1854h1022q262 -105 263 -548q0 -7 1 -14q0 -311 -134 -414q-101 -78 -249 -98l453 -788h-344l-448 781h-232v-773h-332zM327 1102h456q172 8 172 231q0 230 -172 239h-456v-470z" />
<glyph unicode="S" horiz-adv-x="1287" d="M17 1199q10 -35 30 -84.5t66 -94.5q65 -66 266 -152q50 -24 138 -59q146 -58 234.5 -110.5t97.5 -58.5h2q86 -61 86 -143q0 -53 -37 -115q-60 -102 -322 -102q-199 0 -514 59l21 -344q249 -13 435 -13q349 0 473 46q190 72 262 218q56 114 57 246q0 71 -17 148h3 q-31 112 -96 178.5t-270 153.5q-48 23 -135 58q-145 57 -313 155l-18 14h-2q-86 60 -86 142q0 53 37 115q60 102 322 102q199 0 514 -59l-21 345q-249 13 -435 13q-349 -1 -473 -47q-190 -72 -262 -217q-57 -115 -57 -246q0 -72 17 -148h-3z" />
<glyph unicode="T" horiz-adv-x="1340" d="M23 1529v331l1300 -3v-332h-484v-1531h-332v1536z" />
<glyph unicode="U" d="M9 952v901h373v-917h2q0 -166 55 -317.5t155 -235.5t208.5 -84t208 84t155 235.5t55.5 317.5h1v922h350v-901h-1q-4 -287 -105 -508t-287 -346.5t-388.5 -125.5t-388.5 125.5t-286.5 345.5t-105.5 504h-1z" />
<glyph unicode="V" horiz-adv-x="1630" d="M0 1850h364l486 -1343l487 1343h364l-669 -1845l6 -15h-375l6 15z" />
<glyph unicode="W" horiz-adv-x="2210" d="M-180 1855h363l487 -1347l203 562l-284 785h364l102 -281l101 281h364l-283 -784l203 -563l486 1347h364l-669 -1850l6 -15h-375l6 15l-203 563l-204 -563l6 -15h-375l6 15z" />
<glyph unicode="X" horiz-adv-x="1662" d="M0 -2l668 925h-5l3 4l-3 4h5l-668 925h395l471 -651l470 651h396l-669 -925h6l-3 -4l3 -4h-6l669 -925h-396l-470 651l-471 -651h-395z" />
<glyph unicode="Y" horiz-adv-x="1366" d="M-160 1856h395l471 -651l470 651h396l-669 -925h6l-3 -4l3 -4h-6l2 -925h-395l-2 925h-5l3 4l-3 4h5z" />
<glyph unicode="Z" horiz-adv-x="1344" d="M40 1503v353h1266v-353l-799 -1144h799v-353h-1263v341l782 1156h-785z" />
<glyph unicode="[" horiz-adv-x="889" d="M170 -6v1866l661 3v-206h-359v-1453h368v-207z" />
<glyph unicode="\" horiz-adv-x="746" d="M-53 1856h347l545 -1862h-347z" />
<glyph unicode="]" horiz-adv-x="827" d="M72 -3v207h368v1453h-359v206l661 -3v-1866z" />
<glyph unicode="^" horiz-adv-x="961" d="M0 1864h296l195 224l192 -224h293l-261 308h-411z" />
<glyph unicode="_" horiz-adv-x="1799" d="M12 498v261h1761v-261h-1761z" />
<glyph unicode="`" horiz-adv-x="745" d="M66 2133v238l628 -266v-238z" />
<glyph unicode="a" horiz-adv-x="1449" d="M9 596.5q0 161.5 83.5 310.5t232 229t306 80t306.5 -80l34 -20v110h343v-1229h-343v80l-30 -18q-148 -82 -309.5 -82t-310 82t-230.5 229t-82 308.5zM322 590.5q0 -82.5 42 -157.5t117 -117t157.5 -42t157.5 42t117 117t42 157.5t-42.5 159t-118.5 117t-156 40.5 t-155.5 -40.5t-118 -117t-42.5 -159z" />
<glyph unicode="b" horiz-adv-x="1352" d="M40 1v1845h343v-730q170 100 334 100t312.5 -80t232 -229t83.5 -310.5t-82 -308.5t-230.5 -229t-310 -82t-309.5 82l-30 18v-76h-343zM399 590.5q0 -82.5 42 -157t117 -116.5t157.5 -42t157.5 42t117 116.5t42 157t-42.5 158.5t-118 116.5t-155.5 40.5t-156 -40.5 t-118.5 -116.5t-42.5 -158.5z" />
<glyph unicode="c" horiz-adv-x="957" d="M0 600.5q0 160.5 83.5 308.5t232 227.5t294 79.5t273.5 -58v-374q-39 52 -106.5 88t-147.5 36t-155.5 -40t-118 -115.5t-42.5 -157.5t42 -156t117 -116t157.5 -42t149 37t104.5 88v-364q-126 -57 -274 -57t-296.5 81.5t-230.5 227.5t-82 306.5z" />
<glyph unicode="d" horiz-adv-x="1335" d="M0 596.5q0 161.5 83.5 310.5t232 229t306 80t306.5 -80l34 -20v730h343v-1847h-343v78l-30 -18q-148 -82 -309.5 -82t-310 82t-230.5 229t-82 308.5zM313 590.5q0 -82.5 42 -157t117 -116.5t157.5 -42t157.5 42t117 116.5t42 157t-42.5 158.5t-118.5 116.5t-156 40.5 t-155.5 -40.5t-118 -116.5t-42.5 -158.5z" />
<glyph unicode="e" horiz-adv-x="1267" d="M0 596.5q0 161.5 83.5 310.5t232 229t306.5 80h9q158 0 306.5 -80t230.5 -226.5t85 -303.5h-2l-1 -99h-926q37 -128 148 -190q73 -41 154.5 -41t151 39t109.5 101h339q-74 -240 -286 -357q-148 -82 -309 -82h-9q-161 0 -309.5 82t-230.5 229t-82 308.5zM363 760h529 q-42 68 -114 106.5t-151.5 38.5t-151 -38.5t-112.5 -106.5z" />
<glyph unicode="f" horiz-adv-x="817" d="M-89 954v275h251l-1 333v15q0 199 260 358h392q-310 -165 -310 -373v-329l300 -4v-275l-300 -1v-953h-332v954h-260z" />
<glyph unicode="g" horiz-adv-x="1385" d="M2 613.5q0 161.5 82 308.5t230.5 229t310 82t309.5 -82l30 -18v86h343v-1365q-271 -339 -650 -339q-251 0 -548 148l1 314q298 -183 510 -183q31 0 61 4q228 32 283 181v115l-34 -20q-149 -80 -306.5 -80t-306 80t-232 229t-83.5 310.5zM315 619.5q0 -82.5 42.5 -158.5 t118 -116.5t155.5 -40.5t156 40.5t118.5 116.5t42.5 158.5t-42 157t-117 116.5t-157.5 42t-157.5 -42t-117 -116.5t-42 -157z" />
<glyph unicode="h" horiz-adv-x="1414" d="M33 0v1855h343v-716l30 18q148 82 309.5 82t310 -82t230.5 -229t83 -298v-630h-330v626q-24 176 -121 246q-93 67 -173 66h-7h-7q-79 0 -175 -65q-100 -68 -117 -247v-626h-376z" />
<glyph unicode="i" horiz-adv-x="449" d="M41 0v1217h342v-1217h-342zM41 1315v270h342v-270h-342z" />
<glyph unicode="j" horiz-adv-x="448" d="M-269 -430q310 306 310 463v1186h342v-1186v-11q0 -157 -260 -452h-392zM41 1315v270h338v-270h-338z" />
<glyph unicode="k" horiz-adv-x="1170" d="M50 -1v1861h327v-837l371 371h437l-462 -463l512 -932h-334l-390 699l-132 -132v-567h-329z" />
<glyph unicode="l" horiz-adv-x="455" d="M70 0v1856h332v-1856h-332z" />
<glyph unicode="m" horiz-adv-x="2217" d="M0 0v1225h343v-86l30 18q148 82 295.5 82t271.5 -61l169 -119l204 118q148 62 309.5 62t310 -82t230.5 -229t82 -298l1 -630h-330v626q-24 176 -121 246q-93 67 -173 66h-7h-7q-79 0 -175 -65q-100 -68 -117 -247v-626h-376v762q-31 71 -85 110q-93 66 -173 66h-7h-7 q-79 0 -175 -65q-100 -68 -117 -247v-626h-376z" />
<glyph unicode="n" horiz-adv-x="1449" d="M63 0v1225h343v-86l30 18q148 82 309.5 82t310 -82t230.5 -229t82 -298l1 -630h-330v626q-24 176 -121 246q-93 67 -173 66h-7h-7q-79 0 -175 -65q-100 -68 -117 -247v-626h-376z" />
<glyph unicode="o" horiz-adv-x="1288" d="M29 607q0 163 84 313.5t233 231t307 80.5t307.5 -80.5t234 -231t84.5 -313.5t-82.5 -311.5t-231.5 -231t-311 -82.5t-311 82.5t-231.5 231t-82.5 311.5zM334 607q0 -84 42 -160t118.5 -118t159.5 -42t159.5 42t118.5 118t42 160t-43.5 161t-120 118t-157 41t-157 -41 t-119.5 -118t-43 -161z" />
<glyph unicode="p" horiz-adv-x="1352" d="M45 -639v1855h343v-86l30 18q148 82 309.5 82t310 -82t230.5 -229t82 -308.5t-83.5 -310.5t-232 -229t-312.5 -80t-334 100v-730h-343zM404 616.5q0 -82.5 42.5 -158.5t118.5 -116.5t156 -40.5t155.5 40.5t118 116.5t42.5 158.5t-42 157t-117 116.5t-157.5 42t-157.5 -42 t-117 -116.5t-42 -157z" />
<glyph unicode="q" horiz-adv-x="1352" d="M26 618.5q0 161.5 82 308.5t230.5 229t310 82t309.5 -82l30 -18v86h343v-1855h-343v730q-172 -101 -343 -101q-152 0 -303 81q-149 80 -232.5 229t-83.5 310.5zM339 624.5q0 -82.5 42.5 -158.5t118 -116.5t155.5 -40.5t156 40.5t118.5 116.5t42.5 158.5t-42 157 t-117 116.5t-157.5 42t-157.5 -42t-117 -116.5t-42 -157z" />
<glyph unicode="r" horiz-adv-x="863" d="M83 -10v1235h343v-86l30 18q148 82 310 82q26 0 51 -2v-306q-30 8 -59 7h-7q-79 0 -175 -65q-100 -68 -117 -247v-636h-376z" />
<glyph unicode="s" horiz-adv-x="1189" d="M15 897v6q1 81 75 173q78 96 235 123q123 22 281 22q45 0 94 -2l469 1l-1 -255h-480q-44 4 -84 4q-143 0 -234 -48q-15 -26 -15 -48q0 -40 49 -67h2l16 -10q61 -22 166.5 -51.5t248.5 -70.5q161 -53 230 -93h-6q40 -20 73 -45t63.5 -81t33.5 -139v-6q-1 -80 -75 -172 q-78 -96 -230 -126q-109 -21 -256 -21q-59 0 -124 3h-470l-1 280h482q62 -7 120 -6q109 0 198 24q16 26 16 49q0 39 -49 66h-2q-38 22 -163 56.5t-268 75.5q-162 53 -231 93h6q-39 19 -61 37q-45 33 -75 89t-33 139z" />
<glyph unicode="t" horiz-adv-x="870" d="M0 1004v225h251l-1 503l342 160v-659h300v-230h-300v-1003h-332v1004h-260z" />
<glyph unicode="u" horiz-adv-x="1352" d="M23 1219h330v-627q24 -176 121 -246q93 -67 173 -66h7h7q79 0 175 65q100 68 117 247v627l376 -1v-1224h-343v85l-30 -18q-148 -81 -309.5 -81t-310 81.5t-230.5 228.5t-82 298z" />
<glyph unicode="v" horiz-adv-x="1389" d="M2 1215h341l367 -833l368 833h340l-536 -1215h-344z" />
<glyph unicode="w" horiz-adv-x="1868" d="M0 1215h340l368 -833l134 304l-233 529h341l63 -142l62 142h341l-233 -528l135 -305l367 833h341l-536 -1215h-345l-132 300l-133 -300h-345z" />
<glyph unicode="x" horiz-adv-x="1155" d="M11 0l393 608l-393 607h365l210 -325l210 325h365l-392 -607l392 -608h-365l-210 325l-210 -325h-365z" />
<glyph unicode="y" horiz-adv-x="1336" d="M0 1215h341l367 -833l368 833h340l-767 -1652l-365 1l252 446z" />
<glyph unicode="z" horiz-adv-x="1245" d="M40 952v263h1200v-233l-737 -715h737v-273h-1197v225l741 733h-744z" />
<glyph unicode="{" horiz-adv-x="780" d="M-38 934l310 223l-200 703l661 3v-206h-359l160 -506l-270 -224l270 -251l-160 -472h368v-207l-670 -3l200 673z" />
<glyph unicode="|" horiz-adv-x="581" d="M173 -6v1861h251v-1861h-251z" />
<glyph unicode="}" horiz-adv-x="746" d="M40 -3v207h368l-160 472l270 251l-270 224l160 506h-359v206l661 -3l-200 -703l310 -223l-310 -267l200 -673z" />
<glyph unicode="~" horiz-adv-x="1249" d="M106 1867q7 202 82 280.5t163 78.5q40 0 114 -22t245 -95.5t246.5 -73.5t121 43t57.5 144h61q-6 -197 -83.5 -277t-172.5 -80q-44 0 -95.5 15t-240.5 92.5t-260 77.5t-114.5 -38.5t-64.5 -144.5h-59z" />
<glyph unicode="&#xa1;" horiz-adv-x="479" d="M76 -433v1502h334v-1502h-334zM76 1213v211h334v-211h-334z" />
<glyph unicode="&#xa2;" horiz-adv-x="925" d="M0 596.5q0 161.5 83.5 310.5t232.5 229q94 51 192 69v327h81v-317q16 1 33 1q133 0 261 -58v-377q-39 53 -106.5 89t-147.5 36t-155.5 -40.5t-118 -116.5t-42.5 -158.5t42 -157t117 -116.5t157.5 -42t149 37t104.5 89v-367q-126 -57 -261 -57q-17 0 -33 1v-354h-81v364 q-100 18 -195 71q-149 82 -231 229t-82 308.5z" />
<glyph unicode="&#xa3;" horiz-adv-x="1312" d="M-188 607v111l356 168v974h332v-817l353 166v-111l-353 -166v-643h778v-292l-1110 -3v781z" />
<glyph unicode="&#xa5;" horiz-adv-x="1353" d="M-160 1856h395l471 -651l470 651h396l-656 -907h602v-75h-615v-48h611v-75h-611l2 -753h-395l-2 753h-641v75h641v48h-637v75h624z" />
<glyph unicode="&#xa7;" horiz-adv-x="794" d="M21 656q-1 63 27 165t89.5 190.5t128.5 136.5l53 52l-1 6q0 63 27.5 165t89.5 190.5t128 136.5l167 166v-196l-171 -171q-79 -56 -114 -147q-15 -72 12 -77h1l6 -1q21 3 59 17.5t89 32.5q58 16 82 9l-2 -2q14 -2 26 -9.5t22.5 -40.5t11.5 -96.5t-26.5 -165t-89 -190 t-128.5 -136.5l-53 -53v-5q1 -64 -26.5 -165.5t-89.5 -190t-128 -136.5l-168 -166v218l172 170q79 35 113 126q15 71 -12 77h-1l-5 1q-22 -3 -60 -17.5t-92 -32t-79 -9.5l3 2q-15 1 -26.5 9t-22.5 41t-12 96zM148 800q-16 -72 12 -77l6 -1q22 3 59.5 17.5t84.5 29.5t71 14 l131 130q79 35 114 126q15 71 -12 77h-1l-6 1q-22 -3 -59.5 -17.5t-91.5 -32t-79 -9.5l2 2h-4l-114 -113q-78 -56 -113 -147z" />
<glyph unicode="&#xa8;" horiz-adv-x="804" d="M26 1859v258h288v-258h-288zM477 1862v249h288v-249h-288z" />
<glyph unicode="&#xa9;" horiz-adv-x="1742" d="M-15 845q0 364 255 621t622.5 257t623 -257t255.5 -621t-257 -620.5t-621 -256.5t-621 256.5t-257 620.5zM225 847.5q0 -264.5 185.5 -450.5t450 -186t450.5 186t186 450.5t-185 450t-450.5 185.5t-451 -185.5t-185.5 -450zM575 372v309q34 -44 94.5 -75t135 -31 t142.5 35t106 98t38 132t-38.5 133t-107 98t-141 34t-133.5 -30t-96 -75v317q116 49 247.5 49t266 -67.5t210 -192.5t75.5 -261t-74 -259.5t-208.5 -192.5t-268.5 -69t-248 48z" />
<glyph unicode="&#xaa;" horiz-adv-x="741" d="M26 1003v144h676v-144h-676zM29 1524q0 82 42 157.5t116.5 116t154 40.5t153.5 -41l18 -10v56h172v-626h-172v44q-82 -51 -171 -51q-81 0 -156 41.5t-116 116t-41 156.5zM186 1521q0 -42 22 -80q45 -80 138 -80q41 0 78.5 21t59 59t21.5 80t-21.5 80.5t-60 59t-78.5 20.5 t-78 -20.5t-59.5 -59t-21.5 -80.5z" />
<glyph unicode="&#xab;" horiz-adv-x="935" d="M73 722v305l410 474v-302l-281 -325l281 -325v-302zM463 722v305l410 474v-302l-281 -325l281 -325v-302z" />
<glyph unicode="&#xad;" horiz-adv-x="986" d="M42 498v261h910v-261h-910z" />
<glyph unicode="&#xae;" horiz-adv-x="1142" d="M30 1259.5q0 218.5 153 373t373 154.5t373 -154.5t153 -373t-154 -372.5t-372 -154t-372 154t-154 372.5zM174 1261q0 -159 111 -270.5t269.5 -111.5t270 111.5t111.5 270.5t-111 270.5t-270 111.5t-270 -111.5t-111 -270.5zM383 1037v449h293q74 -26 75 -133 q1 -78 -33 -100t-76 -27l129 -191h-98l-128 189h-67v-187h-95zM476 1304h130q49 2 48.5 56.5t-48.5 56.5h-130v-113z" />
<glyph unicode="&#xb0;" horiz-adv-x="748" d="M27 1542q0 82 45 158t126 116.5t166 40.5t165.5 -40.5t126 -116.5t45.5 -158t-44.5 -157t-125 -116.5t-167.5 -41.5t-167.5 41.5t-125 116.5t-44.5 157zM191 1542q0 -42 23 -80.5t64 -60t86 -21.5t86 21.5t64 60t23 80.5t-23.5 81t-65 60t-85 21t-84.5 -21t-64.5 -60 t-23.5 -81z" />
<glyph unicode="&#xb1;" horiz-adv-x="1258" d="M21 858v261h458v452h314v-452h434v-261h-434v-508h-314v508h-458zM38 40v200h1203v-200h-1203z" />
<glyph unicode="&#xb2;" horiz-adv-x="872" d="M5 452h775v181h-563q0 87 95 128q112 61 242 109q31 11 63 25q131 50 167 82.5t53 73.5q9 17 15 38h-2q32 126 -26 231q-46 85 -169.5 121.5t-233.5 36.5h-371v-213q371 80 511 -20q93 -97 1 -156h-1q-6 -4 -13 -8t-76.5 -37.5t-126 -54t-87.5 -33.5q-134 -51 -176 -91 q-30 -26 -43 -55t-19 -49h2q-6 -21 -9 -46l-8 -83v-180z" />
<glyph unicode="&#xb3;" horiz-adv-x="792" d="M11 453v156h439q113 5 112 132t-112 159h-439v159h433q112 32 111 156.5t-111 129.5h-433v128h591q171 -58 171 -225q2 -150 -153 -261q160 -65 162 -252q2 -219 -237 -282h-534z" />
<glyph unicode="&#xb4;" horiz-adv-x="745" d="M56 1867v238l628 266v-238z" />
<glyph unicode="&#xb7;" horiz-adv-x="566" d="M100 851v296h334v-296h-334z" />
<glyph unicode="&#xb8;" horiz-adv-x="437" d="M18 -5v328h347v-324l-97 -224h-76l33 220h-207z" />
<glyph unicode="&#xb9;" horiz-adv-x="682" d="M59 1188v128q245 23 249 157h215v-1020h-215v736z" />
<glyph unicode="&#xba;" horiz-adv-x="748" d="M27 1542q0 82 45 158t126 116.5t166 40.5t165.5 -40.5t126 -116.5t45.5 -158t-44.5 -157t-125 -116.5t-167.5 -41.5t-167.5 41.5t-125 116.5t-44.5 157zM30 1003v144h676v-144h-676zM191 1542q0 -42 23 -80.5t64 -60t86 -21.5t86 21.5t64 60t23 80.5t-23.5 81t-65 60 t-85 21t-84.5 -21t-64.5 -60t-23.5 -81z" />
<glyph unicode="&#xbb;" horiz-adv-x="937" d="M80 247v302l281 325l-281 325v302l410 -474v-305zM470 247v302l281 325l-281 325v302l410 -474v-305z" />
<glyph unicode="&#xbc;" horiz-adv-x="1708" d="M46 1077v128q245 23 249 157h215v-1020h-215v736zM327 -6l545 1862h347l-545 -1862h-347zM544 389l474 1v-393h218v393h162v148l-163 2v485h-367zM856 533l158 356l3 -356h-161z" />
<glyph unicode="&#xbd;" horiz-adv-x="1708" d="M60 1177v128q245 23 249 157h215v-1020h-215v736zM267 -14l545 1862h347l-545 -1862h-347zM592 -10h775v181h-563q0 87 95 128q112 61 242 109q31 11 63 25q131 50 167 82.5t53 73.5q9 17 15 38h-2q32 126 -26 231q-46 85 -169.5 121.5t-233.5 36.5h-371v-213 q371 80 511 -20q93 -97 1 -156h-1q-6 -4 -13 -8t-76.5 -37.5t-126 -54t-87.5 -33.5q-134 -51 -176 -91q-30 -26 -43 -55t-19 -49h2q-6 -21 -9 -46l-8 -83v-180z" />
<glyph unicode="&#xbe;" horiz-adv-x="1792" d="M10 460v156h439q113 5 112 132t-112 159h-439v159h433q112 32 111 156.5t-111 129.5h-433v128h591q171 -58 171 -225q2 -150 -153 -261q160 -65 162 -252q2 -219 -237 -282h-534zM478 -1l545 1862h347l-545 -1862h-347zM659 387l474 1v-393h218v393h162v148l-163 2v485 h-367zM971 531l158 356l3 -356h-161z" />
<glyph unicode="&#xbf;" horiz-adv-x="1357" d="M32 111h3q-12 -223 101 -383q94 -133 293 -174t869 109v344q-700 -249 -833 -88q-116 140 9 261l2 1q8 8 17 16.5t106 81.5t177.5 120.5t124.5 78.5q189 117 242 194q39 52 54 125q10 32 13 66l-3 -1q5 101 -11 176l-373 1q36 -158 -54 -246h-2q-8 -8 -17.5 -16.5 t-106 -81.5t-178 -121.5t-127.5 -79.5q-185 -116 -240 -192q-37 -51 -49 -103t-17 -88zM820 1206h371v211h-371v-211z" />
<glyph unicode="&#xc0;" horiz-adv-x="1397" d="M12 2h392l158 757h449l190 -765l336 1l-461 1869h-566zM440 2166v238l628 -266v-238zM613 1020l168 597l169 -597h-337z" />
<glyph unicode="&#xc1;" horiz-adv-x="1505" d="M12 2h392l158 757h449l190 -765l336 1l-461 1869h-566zM502 1893v238l628 266v-238zM613 1020l168 597l169 -597h-337z" />
<glyph unicode="&#xc2;" horiz-adv-x="1397" d="M12 2h392l158 757h449l190 -765l336 1l-461 1869h-566zM488 1911h180l118 184l117 -184h178l-159 253l-249 -1zM613 1020l168 597l169 -597h-337z" />
<glyph unicode="&#xc3;" horiz-adv-x="1397" d="M12 2h392l158 757h449l190 -765l336 1l-461 1869h-566zM238 1934q7 202 82 280.5t163 78.5q40 0 114 -22t245 -95.5t246.5 -73.5t121 43t57.5 144h61q-6 -197 -83.5 -277t-172.5 -80q-44 0 -95.5 15t-240.5 92.5t-260 77.5t-114.5 -38.5t-64.5 -144.5h-59zM613 1020 l168 597l169 -597h-337z" />
<glyph unicode="&#xc4;" horiz-adv-x="1517" d="M12 2h392l158 757h449l190 -765l336 1l-461 1869h-566zM423 1952v258h288v-258h-288zM613 1020l168 597l169 -597h-337zM874 1955v249h288v-249h-288z" />
<glyph unicode="&#xc5;" horiz-adv-x="1397" d="M12 2h392l158 757h449l190 -765l336 1l-461 1869h-566zM453 2143q0 47 45 90.5t126 67t166 23.5t165.5 -23.5t126 -67t45.5 -90.5t-44.5 -90t-125 -67t-167.5 -24t-167.5 24t-125 67t-44.5 90zM613 1020l168 597l169 -597h-337zM617 2143q0 -24 23 -46q49 -47 150 -47 t150 47q23 22 23 46t-24 46q-48 47 -149 47t-149 -47q-24 -22 -24 -46z" />
<glyph unicode="&#xc7;" horiz-adv-x="1401" d="M10 911.5q0 394.5 209.5 673.5t512 279t512.5 -320q65 -88 117 -201h-388q-101 198 -241.5 198t-245.5 -181.5t-105 -436t105 -431.5t249.5 -177t247.5 187h393q-54 -156 -134 -262q-138 -183 -315 -246v-123l-97 -224h-76l33 220h-207v113q-203 53 -359 259 q-211 278 -211 672.5z" />
<glyph unicode="&#xc8;" horiz-adv-x="1275" d="M0 -1v1856h1001q242 -281 236 -281h-826v-434q73 0 300 120l-5 -120h295l247 -154l-247 -122h-295l17 -130q-239 130 -312 130v-575h826q6 0 11 1l-306 -291h-942zM254 2176v238l628 -266v-238z" />
<glyph unicode="&#xc9;" horiz-adv-x="1275" d="M10 -1v1856h1001q242 -281 236 -281h-826v-434q73 0 300 120l-5 -120h295l247 -154l-247 -122h-295l17 -130q-239 130 -312 130v-575h826q6 0 11 1l-306 -291h-942zM229 1933v238l628 266v-238z" />
<glyph unicode="&#xca;" horiz-adv-x="1275" d="M0 -1v1856h1001q242 -281 236 -281h-826v-434q73 0 300 120l-5 -120h295l247 -154l-247 -122h-295l17 -130q-239 130 -312 130v-575h826q6 0 11 1l-306 -291h-942zM248 1927h180l118 184l117 -184h178l-159 253l-249 -1z" />
<glyph unicode="&#xcb;" horiz-adv-x="1275" d="M0 -1v1856h1001q242 -281 236 -281h-826v-434q73 0 300 120l-5 -120h295l247 -154l-247 -122h-295l17 -130q-239 130 -312 130v-575h826q6 0 11 1l-306 -291h-942zM194 1953v258h288v-258h-288zM645 1956v249h288v-249h-288z" />
<glyph unicode="&#xcc;" horiz-adv-x="449" d="M51 0v1855h332v-1855h-332zM60 2163v238l339 -266v-238z" />
<glyph unicode="&#xcd;" horiz-adv-x="449" d="M51 0v1855h332v-1855h-332zM60 1887v238l339 266v-238z" />
<glyph unicode="&#xce;" horiz-adv-x="449" d="M51 1896l141 304h192l121 -304h-136l-90 221l-90 -221h-138zM103 0v1855h332v-1855h-332z" />
<glyph unicode="&#xcf;" horiz-adv-x="449" d="M41 1946v177h178v-177h-178zM96 0v1855h332v-1855h-332zM320 1948v171h178v-171h-178z" />
<glyph unicode="&#xd1;" horiz-adv-x="1585" d="M40 -6v1866h332l854 -1177v1177h341v-1862h-331l-864 1153v-1157h-332zM267 1976q7 202 82 280.5t163 78.5q40 0 114 -22t245 -95.5t246.5 -73.5t121 43t57.5 144h61q-6 -197 -83.5 -277t-172.5 -80q-44 0 -95.5 15t-240.5 92.5t-260 77.5t-114.5 -38.5t-64.5 -144.5h-59 z" />
<glyph unicode="&#xd2;" d="M10 927q0 248 104.5 476.5t291.5 351t384 122.5t383.5 -122.5t292 -351t105.5 -476.5t-103 -473.5t-289 -351t-388.5 -125.5t-388.5 125.5t-289 351t-103 473.5zM384 936q0 -166 55 -317.5t155 -235.5t208.5 -84t208 84t155 235.5t55.5 317.5t-56.5 319.5t-157 235.5 t-206 82t-205.5 -82t-156 -235.5t-56 -319.5zM482 2138v238l628 -266v-238z" />
<glyph unicode="&#xd3;" d="M10 927q0 248 104.5 476.5t291.5 351t384 122.5t383.5 -122.5t292 -351t105.5 -476.5t-103 -473.5t-289 -351t-388.5 -125.5t-388.5 125.5t-289 351t-103 473.5zM384 936q0 -166 55 -317.5t155 -235.5t208.5 -84t208 84t155 235.5t55.5 317.5t-56.5 319.5t-157 235.5 t-206 82t-205.5 -82t-156 -235.5t-56 -319.5zM432 1863v238l628 266v-238z" />
<glyph unicode="&#xd4;" d="M10 927q0 248 104.5 476.5t291.5 351t384 122.5t383.5 -122.5t292 -351t105.5 -476.5t-103 -473.5t-289 -351t-388.5 -125.5t-388.5 125.5t-289 351t-103 473.5zM384 936q0 -166 55 -317.5t155 -235.5t208.5 -84t208 84t155 235.5t55.5 317.5t-56.5 319.5t-157 235.5 t-206 82t-205.5 -82t-156 -235.5t-56 -319.5zM491 1953h180l118 184l117 -184h178l-159 253l-249 -1z" />
<glyph unicode="&#xd5;" d="M10 927q0 248 104.5 476.5t291.5 351t384 122.5t383.5 -122.5t292 -351t105.5 -476.5t-103 -473.5t-289 -351t-388.5 -125.5t-388.5 125.5t-289 351t-103 473.5zM258 1927q7 202 82 280.5t163 78.5q40 0 114 -22t245 -95.5t246.5 -73.5t121 43t57.5 144h61 q-6 -197 -83.5 -277t-172.5 -80q-44 0 -95.5 15t-240.5 92.5t-260 77.5t-114.5 -38.5t-64.5 -144.5h-59zM384 936q0 -166 55 -317.5t155 -235.5t208.5 -84t208 84t155 235.5t55.5 317.5t-56.5 319.5t-157 235.5t-206 82t-205.5 -82t-156 -235.5t-56 -319.5z" />
<glyph unicode="&#xd6;" d="M10 927q0 248 104.5 476.5t291.5 351t384 122.5t383.5 -122.5t292 -351t105.5 -476.5t-103 -473.5t-289 -351t-388.5 -125.5t-388.5 125.5t-289 351t-103 473.5zM384 936q0 -166 55 -317.5t155 -235.5t208.5 -84t208 84t155 235.5t55.5 317.5t-56.5 319.5t-157 235.5 t-206 82t-205.5 -82t-156 -235.5t-56 -319.5zM421 1981v258h288v-258h-288zM872 1984v249h288v-249h-288z" />
<glyph unicode="&#xd7;" horiz-adv-x="1158" d="M32 287l324 323l-319 320l221 221l320 -319l307 307l185 -185l-308 -307l360 -359l-222 -222l-359 360l-324 -324z" />
<glyph unicode="&#xd8;" d="M10 927q0 248 104.5 476.5t291.5 351t384 122.5t384 -122q59 -39 110 -89l132 196h81l-166 -246q79 -92 135 -212q105 -229 105 -477t-103 -473.5t-289 -351t-388.5 -125.5t-388.5 126q-31 20 -59 44l-100 -149h-81l131 194q-110 107 -180 262q-103 225 -103 473z M384 936q0 -252 113 -440l601 893q-40 60 -90 102q-101 82 -206.5 82t-205.5 -82t-156 -235.5t-56 -319.5zM539 438q120 -139 263 -139q109 0 208.5 84t155 235.5t55.5 317.5q0 216 -86 388z" />
<glyph unicode="&#xd9;" d="M9 952v901h373v-917h2q0 -166 55 -317.5t155 -235.5t208.5 -84t208 84t155 235.5t55.5 317.5h1v922h350v-901h-1q-4 -287 -105 -508t-287 -346.5t-388.5 -125.5t-388.5 125.5t-286.5 345.5t-105.5 504h-1zM472 2155v238l628 -266v-238z" />
<glyph unicode="&#xda;" d="M9 952v901h373v-917h2q0 -166 55 -317.5t155 -235.5t208.5 -84t208 84t155 235.5t55.5 317.5h1v922h350v-901h-1q-4 -287 -105 -508t-287 -346.5t-388.5 -125.5t-388.5 125.5t-286.5 345.5t-105.5 504h-1zM448 1855v238l628 266v-238z" />
<glyph unicode="&#xdb;" d="M9 952v901h373v-917h2q0 -166 55 -317.5t155 -235.5t208.5 -84t208 84t155 235.5t55.5 317.5h1v922h350v-901h-1q-4 -287 -105 -508t-287 -346.5t-388.5 -125.5t-388.5 125.5t-286.5 345.5t-105.5 504h-1zM477 1936h180l118 184l117 -184h178l-159 253l-249 -1z" />
<glyph unicode="&#xdc;" d="M9 952v901h373v-917h2q0 -166 55 -317.5t155 -235.5t208.5 -84t208 84t155 235.5t55.5 317.5h1v922h350v-901h-1q-4 -287 -105 -508t-287 -346.5t-388.5 -125.5t-388.5 125.5t-286.5 345.5t-105.5 504h-1zM419 1950v258h288v-258h-288zM870 1953v249h288v-249h-288z" />
<glyph unicode="&#xdf;" horiz-adv-x="1355" d="M5 -447v2301h1022q262 -105 263 -408q3 -273 -236 -475q246 -119 250 -458q2 -398 -365 -513l-606 -33l-1 -415zM327 1132h456q173 8 171.5 234.5t-171.5 235.5h-456v-470zM337 294h456q173 9 171.5 239.5t-171.5 239.5h-456v-479z" />
<glyph unicode="&#xe0;" horiz-adv-x="1349" d="M12 596.5q0 161.5 83.5 310.5t232 229t306 80t306.5 -80l34 -20v110h343v-1229h-343v80l-30 -18q-148 -82 -309.5 -82t-310 82t-230.5 229t-82 308.5zM325 590.5q0 -82.5 42 -157.5t117 -117t157.5 -42t157.5 42t117 117t42 157.5t-42.5 159t-118.5 117t-156 40.5 t-155.5 -40.5t-118 -117t-42.5 -159zM381 1550v238l628 -266v-238z" />
<glyph unicode="&#xe1;" horiz-adv-x="1349" d="M9 596.5q0 161.5 83.5 310.5t232 229t306 80t306.5 -80l34 -20v110h343v-1229h-343v80l-30 -18q-148 -82 -309.5 -82t-310 82t-230.5 229t-82 308.5zM322 590.5q0 -82.5 42 -157.5t117 -117t157.5 -42t157.5 42t117 117t42 157.5t-42.5 159t-118.5 117t-156 40.5 t-155.5 -40.5t-118 -117t-42.5 -159zM348 1240v238l628 266v-238z" />
<glyph unicode="&#xe2;" horiz-adv-x="1349" d="M9 596.5q0 161.5 83.5 310.5t232 229t306 80t306.5 -80l34 -20v110h343v-1229h-343v80l-30 -18q-148 -82 -309.5 -82t-310 82t-230.5 229t-82 308.5zM322 590.5q0 -82.5 42 -157.5t117 -117t157.5 -42t157.5 42t117 117t42 157.5t-42.5 159t-118.5 117t-156 40.5 t-155.5 -40.5t-118 -117t-42.5 -159zM395 1375h180l118 184l117 -184h178l-159 253l-249 -1z" />
<glyph unicode="&#xe3;" horiz-adv-x="1349" d="M9 596.5q0 161.5 83.5 310.5t232 229t306 80t306.5 -80l34 -20v110h343v-1229h-343v80l-30 -18q-148 -82 -309.5 -82t-310 82t-230.5 229t-82 308.5zM160 1321q7 202 82 280.5t163 78.5q40 0 114 -22t245 -95.5t246.5 -73.5t121 43t57.5 144h61q-6 -197 -83.5 -277 t-172.5 -80q-44 0 -95.5 15t-240.5 92.5t-260 77.5t-114.5 -38.5t-64.5 -144.5h-59zM322 590.5q0 -82.5 42 -157.5t117 -117t157.5 -42t157.5 42t117 117t42 157.5t-42.5 159t-118.5 117t-156 40.5t-155.5 -40.5t-118 -117t-42.5 -159z" />
<glyph unicode="&#xe4;" horiz-adv-x="1349" d="M9 596.5q0 161.5 83.5 310.5t232 229t306 80t306.5 -80l34 -20v110h343v-1229h-343v80l-30 -18q-148 -82 -309.5 -82t-310 82t-230.5 229t-82 308.5zM300 1364v258h288v-258h-288zM322 590.5q0 -82.5 42 -157.5t117 -117t157.5 -42t157.5 42t117 117t42 157.5t-42.5 159 t-118.5 117t-156 40.5t-155.5 -40.5t-118 -117t-42.5 -159zM751 1367v249h288v-249h-288z" />
<glyph unicode="&#xe5;" horiz-adv-x="1349" d="M9 596.5q0 161.5 83.5 310.5t232 229t306 80t306.5 -80l34 -20v110h343v-1229h-343v80l-30 -18q-148 -82 -309.5 -82t-310 82t-230.5 229t-82 308.5zM322 590.5q0 -82.5 42 -157.5t117 -117t157.5 -42t157.5 42t117 117t42 157.5t-42.5 159t-118.5 117t-156 40.5 t-155.5 -40.5t-118 -117t-42.5 -159zM337 1480q0 47 45 90.5t126 67t166 23.5t165.5 -23.5t126 -67t45.5 -90.5t-44.5 -90t-125 -67t-167.5 -24t-167.5 24t-125 67t-44.5 90zM501 1480q0 -24 23 -46q49 -47 150 -47t150 47q23 22 23 46t-24 46q-48 47 -149 47t-149 -47 q-24 -22 -24 -46z" />
<glyph unicode="&#xe7;" horiz-adv-x="925" d="M0 596.5q0 161.5 83.5 310.5t232 229t294 80t273.5 -58v-377q-39 53 -106.5 89t-147.5 36t-155.5 -40.5t-118 -116.5t-42.5 -158.5t42 -157t117 -116.5t157.5 -42t149 37t104.5 89v-367q-102 -45 -209 -54v-150l-76 -172h-59l26 169h-162v190q-214 79 -321 271 q-82 147 -82 308.5z" />
<glyph unicode="&#xe8;" horiz-adv-x="1267" d="M0 596.5q0 161.5 83.5 310.5t232 229t306.5 80h9q158 0 306.5 -80t230.5 -226.5t85 -303.5h-2l-1 -99h-926q37 -128 148 -190q73 -41 154.5 -41t151 39t109.5 101h339q-74 -240 -286 -357q-148 -82 -309 -82h-9q-161 0 -309.5 82t-230.5 229t-82 308.5zM302 1491v238 l628 -266v-238zM363 760h529q-42 68 -114 106.5t-151.5 38.5t-151 -38.5t-112.5 -106.5z" />
<glyph unicode="&#xe9;" horiz-adv-x="1267" d="M0 596.5q0 161.5 83.5 310.5t232 229t306.5 80h9q158 0 306.5 -80t230.5 -226.5t85 -303.5h-2l-1 -99h-926q37 -128 148 -190q73 -41 154.5 -41t151 39t109.5 101h339q-74 -240 -286 -357q-148 -82 -309 -82h-9q-161 0 -309.5 82t-230.5 229t-82 308.5zM303 1230v238 l628 266v-238zM363 760h529q-42 68 -114 106.5t-151.5 38.5t-151 -38.5t-112.5 -106.5z" />
<glyph unicode="&#xea;" horiz-adv-x="1267" d="M0 596.5q0 161.5 83.5 310.5t232 229t306.5 80h9q158 0 306.5 -80t230.5 -226.5t85 -303.5h-2l-1 -99h-926q37 -128 148 -190q73 -41 154.5 -41t151 39t109.5 101h339q-74 -240 -286 -357q-148 -82 -309 -82h-9q-161 0 -309.5 82t-230.5 229t-82 308.5zM326 1257h180 l118 184l117 -184h178l-159 253l-249 -1zM363 760h529q-42 68 -114 106.5t-151.5 38.5t-151 -38.5t-112.5 -106.5z" />
<glyph unicode="&#xeb;" horiz-adv-x="1267" d="M0 596.5q0 161.5 83.5 310.5t232 229t306.5 80h9q158 0 306.5 -80t230.5 -226.5t85 -303.5h-2l-1 -99h-926q37 -128 148 -190q73 -41 154.5 -41t151 39t109.5 101h339q-74 -240 -286 -357q-148 -82 -309 -82h-9q-161 0 -309.5 82t-230.5 229t-82 308.5zM263 1285v258h288 v-258h-288zM363 760h529q-42 68 -114 106.5t-151.5 38.5t-151 -38.5t-112.5 -106.5zM714 1288v249h288v-249h-288z" />
<glyph unicode="&#xec;" horiz-adv-x="449" d="M51 0v1215h332v-1215h-332zM60 1533v238l339 -266v-238z" />
<glyph unicode="&#xed;" horiz-adv-x="449" d="M51 0v1215h332v-1215h-332zM60 1267v238l339 266v-238z" />
<glyph unicode="&#xee;" horiz-adv-x="510" d="M9 1286h138l90 221l90 -221h136l-121 304h-192zM81 0v1215h332v-1215h-332z" />
<glyph unicode="&#xef;" horiz-adv-x="449" d="M31 1306v177h178v-177h-178zM76 0v1215h332v-1215h-332zM310 1308v171h178v-171h-178z" />
<glyph unicode="&#xf1;" horiz-adv-x="1352" d="M3 0v1225h343v-86l30 18q148 82 309.5 82t310 -82t230.5 -229t82 -298l1 -630h-330v626q-24 176 -121 245.5t-180 66.5q-82 3 -182 -65t-117 -247v-626h-376zM24 1293q7 202 82 280.5t163 78.5q40 0 114 -22t245 -95.5t246.5 -73.5t121 43t57.5 144h61 q-6 -197 -83.5 -277t-172.5 -80q-44 0 -95.5 15t-240.5 92.5t-260 77.5t-114.5 -38.5t-64.5 -144.5h-59z" />
<glyph unicode="&#xf2;" horiz-adv-x="1288" d="M29 607q0 163 84 313.5t233 231t307 80.5t307.5 -80.5t234 -231t84.5 -313.5t-82.5 -311.5t-231.5 -231t-311 -82.5t-311 82.5t-231.5 231t-82.5 311.5zM332 1474v238l628 -266v-238zM334 607q0 -84 42 -160t118.5 -118t159.5 -42t159.5 42t118.5 118t42 160t-43.5 161 t-120 118t-157 41t-157 -41t-119.5 -118t-43 -161z" />
<glyph unicode="&#xf3;" horiz-adv-x="1288" d="M29 607q0 163 84 313.5t233 231t307 80.5t307.5 -80.5t234 -231t84.5 -313.5t-82.5 -311.5t-231.5 -231t-311 -82.5t-311 82.5t-231.5 231t-82.5 311.5zM304 1208v238l628 266v-238zM334 607q0 -84 42 -160t118.5 -118t159.5 -42t159.5 42t118.5 118t42 160t-43.5 161 t-120 118t-157 41t-157 -41t-119.5 -118t-43 -161z" />
<glyph unicode="&#xf4;" horiz-adv-x="1288" d="M5 607q0 163 84 313.5t233 231t307 80.5t307.5 -80.5t234 -231t84.5 -313.5t-82.5 -311.5t-231.5 -231t-311 -82.5t-311 82.5t-231.5 231t-82.5 311.5zM310 607q0 -84 42 -160t118.5 -118t159.5 -42t159.5 42t118.5 118t42 160t-43.5 161t-120 118t-157 41t-157 -41 t-119.5 -118t-43 -161zM339 1263h180l118 184l117 -184h178l-159 253l-249 -1z" />
<glyph unicode="&#xf5;" horiz-adv-x="1288" d="M29 607q0 163 84 313.5t233 231t307 80.5t307.5 -80.5t234 -231t84.5 -313.5t-82.5 -311.5t-231.5 -231t-311 -82.5t-311 82.5t-231.5 231t-82.5 311.5zM122 1234q7 202 82 280.5t163 78.5q40 0 114 -22t245 -95.5t246.5 -73.5t121 43t57.5 144h61q-6 -197 -83.5 -277 t-172.5 -80q-44 0 -95.5 15t-240.5 92.5t-260 77.5t-114.5 -38.5t-64.5 -144.5h-59zM334 607q0 -84 42 -160t118.5 -118t159.5 -42t159.5 42t118.5 118t42 160t-43.5 161t-120 118t-157 41t-157 -41t-119.5 -118t-43 -161z" />
<glyph unicode="&#xf6;" horiz-adv-x="1288" d="M29 607q0 163 84 313.5t233 231t307 80.5t307.5 -80.5t234 -231t84.5 -313.5t-82.5 -311.5t-231.5 -231t-311 -82.5t-311 82.5t-231.5 231t-82.5 311.5zM271 1276v258h288v-258h-288zM334 607q0 -84 42 -160t118.5 -118t159.5 -42t159.5 42t118.5 118t42 160t-43.5 161 t-120 118t-157 41t-157 -41t-119.5 -118t-43 -161zM722 1279v249h288v-249h-288z" />
<glyph unicode="&#xf7;" horiz-adv-x="1368" d="M14 610v166h1331v-166h-1331zM523 256v249h288v-249h-288zM523 861v258h288v-258h-288z" />
<glyph unicode="&#xf8;" horiz-adv-x="1290" d="M9 607q0 163 84 313.5t233 231t307 80.5q207 0 371 -120l93 110h113l-140 -165q61 -59 105 -136q84 -151 84 -314t-82.5 -311.5t-231.5 -231t-311 -82.5t-311 83q-34 18 -65 41l-93 -109h-113l140 165q-59 58 -100 134q-83 148 -83 311zM314 607q0 -118 78 -212l412 483 q-86 49 -168.5 49t-159 -41t-119.5 -118t-43 -161zM457 339l18 -10q76 -42 159 -42t159.5 42t118.5 118t42 160q0 126 -84 217z" />
<glyph unicode="&#xf9;" horiz-adv-x="1352" d="M23 1219h330v-627q24 -176 121 -245.5t180 -66.5q82 -3 182 65t117 247v627l376 -1v-1224h-343v85l-30 -18q-148 -81 -309.5 -81t-310 81.5t-230.5 228.5t-82 298zM336 1529v238l628 -266v-238z" />
<glyph unicode="&#xfa;" horiz-adv-x="1352" d="M23 1219h330v-627q24 -176 121 -245.5t180 -66.5q82 -3 182 65t117 247v627l376 -1v-1224h-343v85l-30 -18q-148 -81 -309.5 -81t-310 81.5t-230.5 228.5t-82 298zM343 1264v238l628 266v-238z" />
<glyph unicode="&#xfb;" horiz-adv-x="1352" d="M3 1219h330v-627q24 -176 121 -245.5t180 -66.5q82 -3 182 65t117 247v627l376 -1v-1224h-343v85l-30 -18q-148 -81 -309.5 -81t-310 81.5t-230.5 228.5t-82 298zM337 1276h180l118 184l117 -184h178l-159 253l-249 -1z" />
<glyph unicode="&#xfc;" horiz-adv-x="1352" d="M23 1219h330v-627q24 -176 121 -245.5t180 -66.5q82 -3 182 65t117 247v627l376 -1v-1224h-343v85l-30 -18q-148 -81 -309.5 -81t-310 81.5t-230.5 228.5t-82 298zM279 1280v258h288v-258h-288zM730 1283v249h288v-249h-288z" />
<glyph unicode="&#xff;" horiz-adv-x="1336" d="M0 1215h341l367 -833l368 833h340l-767 -1652l-365 1l252 446zM337 1276v258h288v-258h-288zM788 1279v249h288v-249h-288z" />
<glyph unicode="&#x178;" horiz-adv-x="1366" d="M-160 1856h395l471 -651l470 651h396l-669 -925h6l-3 -4l3 -4h-6l2 -925h-395l-2 925h-5l3 4l-3 4h5zM329 1864v258h288v-258h-288zM780 1867v249h288v-249h-288z" />
<glyph unicode="&#x2c6;" horiz-adv-x="961" d="M190 1268h180l118 184l117 -184h178l-159 253l-249 -1z" />
<glyph unicode="&#x2dc;" horiz-adv-x="1249" d="M106 1867q7 202 82 280.5t163 78.5q40 0 114 -22t245 -95.5t246.5 -73.5t121 43t57.5 144h61q-6 -197 -83.5 -277t-172.5 -80q-44 0 -95.5 15t-240.5 92.5t-260 77.5t-114.5 -38.5t-64.5 -144.5h-59z" />
<glyph unicode="&#x2000;" horiz-adv-x="1218" />
<glyph unicode="&#x2001;" horiz-adv-x="2437" />
<glyph unicode="&#x2002;" horiz-adv-x="1218" />
<glyph unicode="&#x2003;" horiz-adv-x="2437" />
<glyph unicode="&#x2004;" horiz-adv-x="812" />
<glyph unicode="&#x2005;" horiz-adv-x="609" />
<glyph unicode="&#x2006;" horiz-adv-x="406" />
<glyph unicode="&#x2007;" horiz-adv-x="406" />
<glyph unicode="&#x2008;" horiz-adv-x="304" />
<glyph unicode="&#x2009;" horiz-adv-x="487" />
<glyph unicode="&#x200a;" horiz-adv-x="135" />
<glyph unicode="&#x2010;" horiz-adv-x="986" d="M42 498v261h910v-261h-910z" />
<glyph unicode="&#x2011;" horiz-adv-x="986" d="M42 498v261h910v-261h-910z" />
<glyph unicode="&#x2012;" horiz-adv-x="986" d="M42 498v261h910v-261h-910z" />
<glyph unicode="&#x2013;" horiz-adv-x="1241" d="M12 498v261h1206v-261h-1206z" />
<glyph unicode="&#x2014;" horiz-adv-x="1799" d="M12 498v261h1761v-261h-1761z" />
<glyph unicode="&#x2018;" horiz-adv-x="368" d="M0 1272v324l97 224h76l-33 -219h207v-329h-347z" />
<glyph unicode="&#x2019;" horiz-adv-x="420" d="M39 1491v329h347v-324l-97 -224h-76l33 219h-207z" />
<glyph unicode="&#x201a;" horiz-adv-x="437" d="M18 -5v328h347v-324l-97 -224h-76l33 220h-207z" />
<glyph unicode="&#x201c;" horiz-adv-x="790" d="M23 1292v324l97 224h76l-33 -219h207v-329h-347zM433 1292v324l97 224h76l-33 -219h207v-329h-347z" />
<glyph unicode="&#x201d;" horiz-adv-x="863" d="M39 1511v329h347v-324l-97 -224h-76l33 219h-207zM449 1511v329h347v-324l-97 -224h-76l33 219h-207z" />
<glyph unicode="&#x201e;" horiz-adv-x="863" d="M26 -5v328h347v-324l-97 -224h-76l33 220h-207zM436 -5v328h347v-324l-97 -224h-76l33 220h-207z" />
<glyph unicode="&#x2026;" horiz-adv-x="1294" d="M41 -2v296h334v-296h-334zM471 -2v296h334v-296h-334zM911 -2v296h334v-296h-334z" />
<glyph unicode="&#x202f;" horiz-adv-x="487" />
<glyph unicode="&#x2039;" horiz-adv-x="588" d="M73 722v305l410 474v-302l-281 -325l281 -325v-302z" />
<glyph unicode="&#x203a;" horiz-adv-x="557" d="M80 247v302l281 325l-281 325v302l410 -474v-305z" />
<glyph unicode="&#x205f;" horiz-adv-x="609" />
<glyph unicode="&#x20ac;" horiz-adv-x="1272" d="M-51 760v103h182q-2 31 -2 63v14h-180v103h186q19 186 99 361q104 228 291 350.5t384 122.5q151 0 295 -72v-397q-35 48 -77 83q-101 82 -206.5 82t-205.5 -82t-156 -235q-38 -104 -50 -213h702v-103h-708v-4q0 -37 3 -73h705v-103h-692q50 -256 194 -377 q100 -84 208 -84q161 0 283 165v-416q-143 -71 -295 -71q-202 0 -388 125.5t-289 351.5q-68 148 -91 306h-192z" />
<glyph unicode="&#x2122;" horiz-adv-x="1311" d="M16 1008v124l520 -1v-124h-193v-574h-133v576zM264 433v699h133l166 -332l177 332h133v-699h-133v437l-103 -203h-132l-108 200v-434h-133z" />
<glyph unicode="&#xe000;" horiz-adv-x="1215" d="M0 0v1215h1215v-1215h-1215z" />
</font>
</defs>
</svg>
